<?xml version="1.0" encoding="UTF-8"?>
<svg xmlns="http://www.w3.org/2000/svg" width="700" height="77.002" viewBox="0 0 500.3 77.002">
  <g id="svgGroup" stroke-linecap="round" fill-rule="evenodd" font-size="9pt" stroke="#000" stroke-width="0.25mm" style="stroke:#000;stroke-width:0.25mm;">
    <path transform="translate(-95, 0)" fill="#080F79" stroke="#080F79" d="M 408.6 43.801 L 408.6 76.101 L 399.6 76.101 L 399.6 45.101 Q 399.6 39.274 397.555 35.391 A 13.107 13.107 0 0 0 395.55 32.551 A 13.397 13.397 0 0 0 387.58 28.424 A 19.139 19.139 0 0 0 384.6 28.201 Q 377.5 28.201 373.3 32.751 Q 369.758 36.588 369.203 43.304 A 31.539 31.539 0 0 0 369.1 45.901 L 369.1 76.101 L 360.1 76.101 L 360.1 45.101 Q 360.1 39.274 358.055 35.391 A 13.107 13.107 0 0 0 356.05 32.551 A 13.397 13.397 0 0 0 348.08 28.424 A 19.139 19.139 0 0 0 345.1 28.201 Q 338 28.201 333.8 32.751 Q 330.258 36.588 329.703 43.304 A 31.539 31.539 0 0 0 329.6 45.901 L 329.6 76.101 L 320.5 76.101 L 320.5 21.301 L 329.6 21.301 L 329.6 29.201 Q 332.3 24.901 336.85 22.601 A 21.635 21.635 0 0 1 345.708 20.328 A 25.589 25.589 0 0 1 346.9 20.301 A 26.101 26.101 0 0 1 353.78 21.176 A 21.858 21.858 0 0 1 359.1 23.401 A 18.79 18.79 0 0 1 366.75 31.945 A 23.164 23.164 0 0 1 367 32.501 Q 369.3 26.701 374.6 23.501 Q 379.9 20.301 386.4 20.301 A 26.446 26.446 0 0 1 392.805 21.049 A 21.935 21.935 0 0 1 397.8 22.951 A 18.957 18.957 0 0 1 405.329 30.249 A 22.975 22.975 0 0 1 405.7 30.901 A 22.616 22.616 0 0 1 407.963 37.181 Q 408.52 39.856 408.59 42.918 A 38.792 38.792 0 0 1 408.6 43.801 Z M 114.8 76.101 L 102.4 76.101 L 80.9 51.901 L 80.9 76.101 L 71.8 76.101 L 71.8 2.101 L 80.9 2.101 L 80.9 45.601 L 102 21.301 L 114.7 21.301 L 88.9 48.601 L 114.8 76.101 Z M 308.2 52.101 L 264.4 52.101 Q 264.9 60.201 269.95 64.751 Q 275 69.301 282.2 69.301 A 20.912 20.912 0 0 0 286.672 68.847 A 14.858 14.858 0 0 0 292.05 66.551 Q 296 63.801 297.6 59.201 L 307.4 59.201 Q 305.2 67.101 298.6 72.051 A 24.315 24.315 0 0 1 288.287 76.468 A 33.325 33.325 0 0 1 282.2 77.001 A 29.737 29.737 0 0 1 273.733 75.831 A 25.872 25.872 0 0 1 268.25 73.501 Q 262.1 70.001 258.6 63.551 A 28.736 28.736 0 0 1 255.446 53.744 A 37.049 37.049 0 0 1 255.1 48.601 A 35.963 35.963 0 0 1 255.898 40.859 A 28.007 28.007 0 0 1 258.5 33.701 Q 261.9 27.301 268.05 23.851 A 26.959 26.959 0 0 1 278.081 20.644 A 33.989 33.989 0 0 1 282.2 20.401 A 30.42 30.42 0 0 1 289.926 21.346 A 25.207 25.207 0 0 1 296 23.801 Q 302 27.201 305.25 33.151 A 26.722 26.722 0 0 1 308.381 43.786 A 32.702 32.702 0 0 1 308.5 46.601 A 50.208 50.208 0 0 1 308.383 49.968 A 59.616 59.616 0 0 1 308.2 52.101 Z M 233.9 31.101 L 233.9 2.101 L 243.1 2.101 L 243.1 76.101 L 233.9 76.101 L 233.9 65.801 A 20.696 20.696 0 0 1 227.645 72.716 A 25.432 25.432 0 0 1 225.9 73.851 A 22.304 22.304 0 0 1 217.557 76.723 A 28.755 28.755 0 0 1 213.5 77.001 Q 206.2 77.001 200.25 73.401 A 25.086 25.086 0 0 1 191.007 63.503 A 29.725 29.725 0 0 1 190.9 63.301 A 29.872 29.872 0 0 1 187.74 52.783 A 37.321 37.321 0 0 1 187.5 48.501 Q 187.5 40.101 190.9 33.751 Q 194.3 27.401 200.25 23.901 A 25.564 25.564 0 0 1 212.453 20.422 A 30.596 30.596 0 0 1 213.6 20.401 Q 220 20.401 225.5 23.351 A 23.186 23.186 0 0 1 230.738 27.131 A 19.769 19.769 0 0 1 233.9 31.101 Z M 51.2 76.101 L 45.6 60.601 L 15.2 60.601 L 9.6 76.101 L 0 76.101 L 25.2 6.801 L 35.7 6.801 L 60.8 76.101 L 51.2 76.101 Z M 166.3 31.301 L 166.3 21.301 L 175.5 21.301 L 175.5 76.101 L 166.3 76.101 L 166.3 65.901 Q 163.6 70.701 158.25 73.851 A 22.691 22.691 0 0 1 149.655 76.752 A 28.998 28.998 0 0 1 145.8 77.001 A 25.399 25.399 0 0 1 135.845 75.064 A 24.385 24.385 0 0 1 132.6 73.401 A 25.126 25.126 0 0 1 123.569 63.804 A 29.9 29.9 0 0 1 123.3 63.301 A 29.872 29.872 0 0 1 120.14 52.783 A 37.321 37.321 0 0 1 119.9 48.501 Q 119.9 40.101 123.3 33.751 Q 126.7 27.401 132.65 23.901 A 25.55 25.55 0 0 1 145.445 20.404 A 30.191 30.191 0 0 1 145.9 20.401 A 28.166 28.166 0 0 1 152.233 21.082 A 21.843 21.843 0 0 1 158.4 23.501 Q 163.7 26.601 166.3 31.301 Z M 491.1 31.301 L 491.1 21.301 L 500.3 21.301 L 500.3 76.101 L 491.1 76.101 L 491.1 65.901 Q 488.4 70.701 483.05 73.851 A 22.691 22.691 0 0 1 474.455 76.752 A 28.998 28.998 0 0 1 470.6 77.001 A 25.399 25.399 0 0 1 460.645 75.064 A 24.385 24.385 0 0 1 457.4 73.401 A 25.126 25.126 0 0 1 448.369 63.804 A 29.9 29.9 0 0 1 448.1 63.301 A 29.872 29.872 0 0 1 444.94 52.783 A 37.321 37.321 0 0 1 444.7 48.501 Q 444.7 40.101 448.1 33.751 Q 451.5 27.401 457.45 23.901 A 25.55 25.55 0 0 1 470.245 20.404 A 30.191 30.191 0 0 1 470.7 20.401 A 28.166 28.166 0 0 1 477.033 21.082 A 21.843 21.843 0 0 1 483.2 23.501 Q 488.5 26.601 491.1 31.301 Z M 423.5 21.301 L 432.6 21.301 L 432.6 76.101 L 423.5 76.101 L 423.5 21.301 Z M 166.3 48.601 A 25.945 25.945 0 0 0 165.751 43.14 A 19.855 19.855 0 0 0 163.8 37.801 A 18.313 18.313 0 0 0 159.708 32.639 A 17.068 17.068 0 0 0 157.05 30.751 Q 152.8 28.301 147.7 28.301 A 18.686 18.686 0 0 0 140.143 29.825 A 18.114 18.114 0 0 0 138.4 30.701 A 17.132 17.132 0 0 0 132.267 36.721 A 20.825 20.825 0 0 0 131.7 37.701 A 20.246 20.246 0 0 0 129.552 44.076 A 26.785 26.785 0 0 0 129.2 48.501 A 26.732 26.732 0 0 0 129.74 54.001 A 20.213 20.213 0 0 0 131.7 59.451 A 18.763 18.763 0 0 0 135.268 64.197 A 16.784 16.784 0 0 0 138.4 66.551 Q 142.6 69.001 147.7 69.001 Q 152.8 69.001 157.05 66.551 A 17.346 17.346 0 0 0 163.316 60.303 A 20.968 20.968 0 0 0 163.8 59.451 Q 166.3 54.801 166.3 48.601 Z M 233.9 48.601 A 25.945 25.945 0 0 0 233.351 43.14 A 19.855 19.855 0 0 0 231.4 37.801 A 18.313 18.313 0 0 0 227.308 32.639 A 17.068 17.068 0 0 0 224.65 30.751 Q 220.4 28.301 215.3 28.301 A 18.686 18.686 0 0 0 207.743 29.825 A 18.114 18.114 0 0 0 206 30.701 A 17.132 17.132 0 0 0 199.867 36.721 A 20.825 20.825 0 0 0 199.3 37.701 A 20.246 20.246 0 0 0 197.152 44.076 A 26.785 26.785 0 0 0 196.8 48.501 A 26.732 26.732 0 0 0 197.34 54.001 A 20.213 20.213 0 0 0 199.3 59.451 A 18.763 18.763 0 0 0 202.868 64.197 A 16.784 16.784 0 0 0 206 66.551 Q 210.2 69.001 215.3 69.001 Q 220.4 69.001 224.65 66.551 A 17.346 17.346 0 0 0 230.916 60.303 A 20.968 20.968 0 0 0 231.4 59.451 Q 233.9 54.801 233.9 48.601 Z M 491.1 48.601 A 25.945 25.945 0 0 0 490.551 43.14 A 19.855 19.855 0 0 0 488.6 37.801 A 18.313 18.313 0 0 0 484.508 32.639 A 17.068 17.068 0 0 0 481.85 30.751 Q 477.6 28.301 472.5 28.301 A 18.686 18.686 0 0 0 464.943 29.825 A 18.114 18.114 0 0 0 463.2 30.701 A 17.132 17.132 0 0 0 457.067 36.721 A 20.825 20.825 0 0 0 456.5 37.701 A 20.246 20.246 0 0 0 454.352 44.076 A 26.785 26.785 0 0 0 454 48.501 A 26.732 26.732 0 0 0 454.54 54.001 A 20.213 20.213 0 0 0 456.5 59.451 A 18.763 18.763 0 0 0 460.068 64.197 A 16.784 16.784 0 0 0 463.2 66.551 Q 467.4 69.001 472.5 69.001 Q 477.6 69.001 481.85 66.551 A 17.346 17.346 0 0 0 488.116 60.303 A 20.968 20.968 0 0 0 488.6 59.451 Q 491.1 54.801 491.1 48.601 Z M 17.8 53.201 L 43 53.201 L 30.4 18.001 L 17.8 53.201 Z M 264.5 44.701 L 299.1 44.701 A 19.713 19.713 0 0 0 298.628 40.286 A 15.038 15.038 0 0 0 296.8 35.751 Q 294.5 32.001 290.55 30.051 A 19.058 19.058 0 0 0 283.279 28.148 A 22.704 22.704 0 0 0 281.8 28.101 A 17.948 17.948 0 0 0 275.093 29.324 A 16.64 16.64 0 0 0 270.05 32.501 A 16.427 16.427 0 0 0 265.297 40.316 A 23.434 23.434 0 0 0 264.5 44.701 Z M 425.528 11.831 A 6.192 6.192 0 0 0 428.2 12.401 Q 430.7 12.401 432.45 10.601 Q 434.2 8.801 434.2 6.201 Q 434.2 3.601 432.45 1.801 Q 430.7 0.001 428.2 0.001 A 7.455 7.455 0 0 0 428.119 0.001 A 5.975 5.975 0 0 0 423.8 1.801 A 6.135 6.135 0 0 0 422.57 3.529 A 6.192 6.192 0 0 0 422 6.201 A 7.455 7.455 0 0 0 422 6.282 A 5.975 5.975 0 0 0 423.8 10.601 A 6.135 6.135 0 0 0 425.528 11.831 Z" vector-effect="non-scaling-stroke"></path>
    <path transform="translate(425, 0)" fill="#FF7900" stroke="#FF7900" d="M 105.79 33.348 A 21.549 21.549 0 0 0 110.4 35.801 A 22.445 22.445 0 0 0 109.446 36.101 A 17.978 17.978 0 0 0 100.6 42.401 A 17.394 17.394 0 0 0 97.845 47.857 A 20.836 20.836 0 0 0 97 53.901 A 24.526 24.526 0 0 0 97.132 56.474 A 19.372 19.372 0 0 0 100.2 65.251 A 19.796 19.796 0 0 0 103.354 68.952 A 22.316 22.316 0 0 0 109.15 72.751 A 27.848 27.848 0 0 0 115.781 74.819 A 37.013 37.013 0 0 0 122.5 75.401 A 38.44 38.44 0 0 0 128.008 75.021 A 29.327 29.327 0 0 0 135.95 72.751 A 25.005 25.005 0 0 0 138.051 71.68 A 20.157 20.157 0 0 0 145 65.251 A 18.701 18.701 0 0 0 147.356 60.144 A 22.263 22.263 0 0 0 148.2 53.901 A 22.745 22.745 0 0 0 148.072 51.457 A 17.569 17.569 0 0 0 144.55 42.451 A 18.274 18.274 0 0 0 140.831 38.813 A 20.437 20.437 0 0 0 134.7 35.801 Q 140.1 33.701 143.2 29.351 Q 146.3 25.001 146.3 19.201 Q 146.3 13.801 143.55 9.451 A 17.176 17.176 0 0 0 139.991 5.417 A 21.53 21.53 0 0 0 135.45 2.551 Q 130.1 0.001 122.5 0.001 Q 114.9 0.001 109.55 2.551 A 22.641 22.641 0 0 0 106.607 4.224 A 17.317 17.317 0 0 0 101.5 9.451 A 17.832 17.832 0 0 0 100.256 11.836 A 18.506 18.506 0 0 0 98.8 19.201 A 21.249 21.249 0 0 0 99.044 22.477 A 15.954 15.954 0 0 0 101.8 29.401 A 16.79 16.79 0 0 0 105.79 33.348 Z M 40 9.651 A 35.005 35.005 0 0 0 36.802 17.211 Q 34.4 25.237 34.4 36.501 Q 34.4 54.001 40 63.701 Q 45.6 73.401 59.6 73.401 Q 73.5 73.401 79.1 63.701 A 35.363 35.363 0 0 0 82.367 55.844 Q 84.7 47.798 84.7 36.501 Q 84.7 19.301 79.1 9.651 A 18.421 18.421 0 0 0 66.942 0.808 A 31.158 31.158 0 0 0 59.6 0.001 A 31.71 31.71 0 0 0 52.344 0.775 A 18.471 18.471 0 0 0 40 9.651 Z M 9.6 9.401 L 0 9.401 L 0 1.101 L 18.8 1.101 L 18.8 73.401 L 9.6 73.401 L 9.6 9.401 Z M 75.7 36.501 A 110.381 110.381 0 0 0 75.538 30.349 Q 75.269 25.533 74.55 21.751 Q 73.4 15.701 69.85 12.001 A 11.424 11.424 0 0 0 64.608 8.936 Q 62.374 8.301 59.6 8.301 A 19.971 19.971 0 0 0 55.577 8.681 Q 53.161 9.178 51.317 10.326 A 10.667 10.667 0 0 0 49.25 12.001 A 16.949 16.949 0 0 0 45.702 17.666 A 23.194 23.194 0 0 0 44.55 21.751 A 57.773 57.773 0 0 0 43.849 26.662 Q 43.4 31.064 43.4 36.501 A 116.866 116.866 0 0 0 43.562 42.844 Q 43.726 45.857 44.057 48.45 A 53.845 53.845 0 0 0 44.55 51.601 A 22.868 22.868 0 0 0 45.947 56.321 A 16.675 16.675 0 0 0 49.25 61.401 A 11.365 11.365 0 0 0 54.356 64.418 Q 56.17 64.952 58.35 65.069 A 23.373 23.373 0 0 0 59.6 65.101 A 19.376 19.376 0 0 0 63.658 64.703 Q 67.465 63.887 69.85 61.401 A 16.857 16.857 0 0 0 73.349 55.841 A 23.308 23.308 0 0 0 74.55 51.601 A 58.3 58.3 0 0 0 75.251 46.619 Q 75.518 43.951 75.626 40.885 A 124.286 124.286 0 0 0 75.7 36.501 Z M 122.5 39.801 A 26.043 26.043 0 0 0 117.33 40.287 Q 113.338 41.095 110.4 43.251 A 11.157 11.157 0 0 0 105.958 50.557 A 17.107 17.107 0 0 0 105.7 53.601 A 14.567 14.567 0 0 0 106.51 58.556 A 12.548 12.548 0 0 0 110.25 63.901 A 15.493 15.493 0 0 0 116.564 67.107 Q 118.895 67.709 121.647 67.789 A 29.381 29.381 0 0 0 122.5 67.801 A 24.588 24.588 0 0 0 127.519 67.319 Q 130.583 66.68 132.952 65.194 A 14.122 14.122 0 0 0 134.7 63.901 A 12.769 12.769 0 0 0 139.173 54.586 A 17.406 17.406 0 0 0 139.2 53.601 A 15.589 15.589 0 0 0 138.656 49.367 A 11.264 11.264 0 0 0 134.6 43.351 Q 130.32 40.048 123.53 39.819 A 30.442 30.442 0 0 0 122.5 39.801 Z M 137.5 20.301 A 14.846 14.846 0 0 0 137.006 16.358 A 10.51 10.51 0 0 0 133.5 10.901 Q 129.5 7.601 122.5 7.601 Q 115.6 7.601 111.6 10.901 Q 107.6 14.201 107.6 20.401 A 12.205 12.205 0 0 0 108.38 24.844 A 10.961 10.961 0 0 0 111.75 29.401 A 14.596 14.596 0 0 0 117.983 32.343 A 21.096 21.096 0 0 0 122.5 32.801 Q 129.069 32.801 133.187 29.485 A 13.583 13.583 0 0 0 133.35 29.351 A 11.06 11.06 0 0 0 137.464 21.332 A 14.342 14.342 0 0 0 137.5 20.301 Z" vector-effect="non-scaling-stroke"></path>
  </g>
</svg>
