<?xml version="1.0" encoding="UTF-8" standalone="no"?>
<!-- Created with Inkscape (http://www.inkscape.org/) -->

<svg
   width="650mm"
   height="77mm"
   viewBox="0 0 650 77"
   version="1.1"
   id="svg1"
   inkscape:version="1.3.2 (091e20e, 2023-11-25, custom)"
   sodipodi:docname="logo-akademia108-white-paths.svg"
   xmlns:inkscape="http://www.inkscape.org/namespaces/inkscape"
   xmlns:sodipodi="http://sodipodi.sourceforge.net/DTD/sodipodi-0.dtd"
   xmlns="http://www.w3.org/2000/svg"
   xmlns:svg="http://www.w3.org/2000/svg">
  <sodipodi:namedview
     id="namedview1"
     pagecolor="#b3b3b3"
     bordercolor="#000000"
     borderopacity="0.25"
     inkscape:showpageshadow="2"
     inkscape:pageopacity="0.0"
     inkscape:pagecheckerboard="0"
     inkscape:deskcolor="#d1d1d1"
     inkscape:document-units="mm"
     inkscape:zoom="0.48863286"
     inkscape:cx="1418.2427"
     inkscape:cy="101.30305"
     inkscape:window-width="2560"
     inkscape:window-height="1369"
     inkscape:window-x="2552"
     inkscape:window-y="-8"
     inkscape:window-maximized="1"
     inkscape:current-layer="layer1" />
  <defs
     id="defs1">
    <rect
       x="36.837475"
       y="36.837475"
       width="1952.3861"
       height="229.21095"
       id="rect1" />
  </defs>
  <g
     inkscape:label="Layer 1"
     inkscape:groupmode="layer"
     id="layer1">
    <text
       xml:space="preserve"
       transform="scale(0.26458333)"
       id="text1"
       style="font-style:normal;font-variant:normal;font-weight:normal;font-stretch:normal;font-size:192px;font-family:Poppins;-inkscape-font-specification:Poppins;white-space:pre;shape-inside:url(#rect1);display:inline;fill:#f9f9f9" />
    <path
       d="M 49.774287,58.997858 H 21.700465 L 16.528971,73.311813 H 7.6635537 L 30.935275,9.3145809 h 9.69655 L 63.811198,73.311813 H 54.94578 Z M 47.373236,52.164099 35.737376,19.657568 24.101515,52.164099 Z M 102.22799,73.311813 82.373147,50.963573 v 22.34824 H 73.96947 V 4.9742203 h 8.403677 V 45.145643 L 101.8586,22.705055 h 11.7282 L 89.760994,47.916086 113.67915,73.311813 Z m 16.16086,-25.488075 q 0,-7.75724 3.13984,-13.57517 3.13983,-5.910279 8.58837,-9.142462 5.54089,-3.232184 12.2823,-3.232184 6.64906,0 11.54351,2.862791 4.89445,2.862791 7.2955,7.203152 v -9.23481 h 8.49603 v 50.606758 h -8.49603 v -9.419506 q -2.4934,4.432709 -7.48019,7.387848 -4.89445,2.862791 -11.45117,2.862791 -6.74141,0 -12.18995,-3.324531 -5.44854,-3.324532 -8.58837,-9.327158 -3.13984,-6.002627 -3.13984,-13.667519 z m 42.84952,0.09235 q 0,-5.725582 -2.3087,-9.973594 -2.3087,-4.248013 -6.27967,-6.464367 -3.87862,-2.308703 -8.58837,-2.308703 -4.70976,0 -8.58838,2.216355 -3.87862,2.216354 -6.18732,6.464366 -2.3087,4.248013 -2.3087,9.973595 0,5.81793 2.3087,10.158291 2.3087,4.248013 6.18732,6.556715 3.87862,2.216354 8.58838,2.216354 4.70975,0 8.58837,-2.216354 3.97097,-2.308702 6.27967,-6.556715 2.3087,-4.340361 2.3087,-10.065943 z m 19.57785,-0.09235 q 0,-7.75724 3.13984,-13.57517 3.13983,-5.910279 8.58837,-9.142462 5.54089,-3.232184 12.37465,-3.232184 5.91027,0 10.98942,2.770443 5.07914,2.678095 7.75724,7.110804 V 4.9742203 h 8.49602 V 73.311813 h -8.49602 v -9.511854 q -2.4934,4.525057 -7.38785,7.480196 -4.89445,2.862791 -11.45116,2.862791 -6.74141,0 -12.2823,-3.324531 -5.44854,-3.324532 -8.58837,-9.327158 -3.13984,-6.002627 -3.13984,-13.667519 z m 42.84952,0.09235 q 0,-5.725582 -2.3087,-9.973594 -2.30871,-4.248013 -6.27967,-6.464367 -3.87862,-2.308703 -8.58838,-2.308703 -4.70975,0 -8.58837,2.216355 -3.87862,2.216354 -6.18732,6.464366 -2.30871,4.248013 -2.30871,9.973595 0,5.81793 2.30871,10.158291 2.3087,4.248013 6.18732,6.556715 3.87862,2.216354 8.58837,2.216354 4.70976,0 8.58838,-2.216354 3.97096,-2.308702 6.27967,-6.556715 2.3087,-4.340361 2.3087,-10.065943 z m 68.89173,-1.846962 q 0,2.401051 -0.27704,5.079146 h -40.44847 q 0.46174,7.480196 5.07915,11.728208 4.70975,4.155665 11.35881,4.155665 5.44854,0 9.05012,-2.493399 3.69392,-2.585747 5.17149,-6.833759 h 9.05012 q -2.03166,7.295499 -8.12664,11.912904 -6.09497,4.525057 -15.14509,4.525057 -7.20315,0 -12.92873,-3.232183 -5.63323,-3.232184 -8.86542,-9.142462 -3.23218,-6.002626 -3.23218,-13.852215 0,-7.849588 3.13984,-13.759867 3.13983,-5.910278 8.77306,-9.050113 5.72559,-3.232184 13.11343,-3.232184 7.20316,0 12.74404,3.139836 5.54089,3.139835 8.49603,8.680721 3.04748,5.448538 3.04748,12.374645 z m -8.68072,-1.754614 q 0,-4.802101 -2.124,-8.21898 -2.12401,-3.509228 -5.81793,-5.263842 -3.60158,-1.846962 -8.03429,-1.846962 -6.37202,0 -10.89707,4.063316 -4.43271,4.063317 -5.07915,11.266468 z m 80.61996,-22.532936 q 5.91028,0 10.52769,2.493399 4.6174,2.40105 7.2955,7.2955 2.67809,4.894449 2.67809,11.912904 v 29.828436 h -8.31133 v -28.62791 q 0,-7.572544 -3.78627,-11.543513 -3.69392,-4.063316 -10.06594,-4.063316 -6.55672,0 -10.43534,4.248013 -3.87862,4.155664 -3.87862,12.097601 v 27.889125 h -8.31133 v -28.62791 q 0,-7.572544 -3.78627,-11.543513 -3.69392,-4.063316 -10.06594,-4.063316 -6.55672,0 -10.43534,4.248013 -3.87862,4.155664 -3.87862,12.097601 v 27.889125 h -8.40367 V 22.705055 h 8.40367 v 7.2955 q 2.4934,-3.970968 6.64907,-6.094974 4.24801,-2.124007 9.32715,-2.124007 6.37202,0 11.26647,2.862791 4.89445,2.862791 7.2955,8.403677 2.12401,-5.356189 7.01846,-8.311329 4.89445,-2.955139 10.89707,-2.955139 z m 38.60159,-7.2955 q -2.40105,0 -4.06332,-1.662265 -1.66226,-1.662266 -1.66226,-4.0633167 0,-2.4010505 1.66226,-4.0633163 1.66227,-1.6622658 4.06332,-1.6622658 2.3087,0 3.87862,1.6622658 1.66226,1.6622658 1.66226,4.0633163 0,2.4010507 -1.66226,4.0633167 -1.56992,1.662265 -3.87862,1.662265 z m 4.06331,8.218981 v 50.606758 h -8.40367 V 22.705055 Z m 11.17414,25.118683 q 0,-7.75724 3.13984,-13.57517 3.13983,-5.910279 8.58837,-9.142462 5.54089,-3.232184 12.2823,-3.232184 6.64906,0 11.54351,2.862791 4.89445,2.862791 7.2955,7.203152 v -9.23481 h 8.49603 v 50.606758 h -8.49603 v -9.419506 q -2.4934,4.432709 -7.4802,7.387848 -4.89444,2.862791 -11.45116,2.862791 -6.74141,0 -12.18995,-3.324531 -5.44854,-3.324532 -8.58837,-9.327158 -3.13984,-6.002627 -3.13984,-13.667519 z m 42.84952,0.09235 q 0,-5.725582 -2.3087,-9.973594 -2.3087,-4.248013 -6.27967,-6.464367 -3.87862,-2.308703 -8.58838,-2.308703 -4.70975,0 -8.58837,2.216355 -3.87862,2.216354 -6.18732,6.464366 -2.3087,4.248013 -2.3087,9.973595 0,5.81793 2.3087,10.158291 2.3087,4.248013 6.18732,6.556715 3.87862,2.216354 8.58837,2.216354 4.70976,0 8.58838,-2.216354 3.97097,-2.308702 6.27967,-6.556715 2.3087,-4.340361 2.3087,-10.065943 z"
       id="text2"
       style="font-size:92.3481px;font-family:Poppins;-inkscape-font-specification:Poppins;fill:#f9f9f9;stroke-width:0.480979"
       aria-label="Akademia" />
    <path
       style="font-size:96.8364px;font-family:Poppins;-inkscape-font-specification:Poppins;fill:#ff7900;stroke-width:0.504356"
       d="M 490.88392,11.34329 V 3.305869 h 18.20524 v 70.012719 h -8.90895 V 11.34329 Z m 33.31169,26.242666 q 0,-16.655862 5.42284,-25.952156 5.42284,-9.3931315 18.97993,-9.3931315 13.46026,0 18.8831,9.3931315 5.42284,9.296294 5.42284,25.952156 0,16.94637 -5.42284,26.339501 -5.42284,9.393131 -18.8831,9.393131 -13.55709,0 -18.97993,-9.393131 -5.42284,-9.393131 -5.42284,-26.339501 z m 39.99343,0 q 0,-8.424767 -1.16203,-14.234952 -1.0652,-5.90702 -4.55131,-9.489967 -3.38928,-3.582947 -9.87732,-3.582947 -6.58487,0 -10.07098,3.582947 -3.38928,3.582947 -4.55131,9.489967 -1.06521,5.810185 -1.06521,14.234952 0,8.715276 1.06521,14.622296 1.16203,5.907021 4.55131,9.489968 3.48611,3.582947 10.07098,3.582947 6.48804,0 9.87732,-3.582947 3.48611,-3.582947 4.55131,-9.489968 1.16203,-5.90702 1.16203,-14.622296 z m 33.60226,-0.677855 q -5.42284,-2.130401 -8.32793,-6.19753 -2.9051,-4.067129 -2.9051,-9.877313 0,-5.229166 2.61459,-9.393131 2.61458,-4.2608019 7.74691,-6.681712 5.22917,-2.5177465 12.58873,-2.5177465 7.35957,0 12.4919,2.5177465 5.22916,2.4209101 7.84375,6.681712 2.71142,4.163965 2.71142,9.393131 0,5.616511 -3.00193,9.877313 -3.00193,4.163965 -8.2311,6.19753 6.00386,1.839891 9.48997,6.488039 3.58295,4.551311 3.58295,11.03935 0,6.294366 -3.09877,11.03935 -3.09876,4.648147 -8.81211,7.26273 -5.61651,2.517746 -12.97608,2.517746 -7.35956,0 -12.97608,-2.517746 -5.51967,-2.614583 -8.61844,-7.26273 -3.09876,-4.744984 -3.09876,-11.03935 0,-6.488039 3.48611,-11.136187 3.48611,-4.648147 9.48997,-6.391202 z m 26.24266,-15.009643 q 0,-5.90702 -3.87345,-9.102622 -3.87346,-3.1956008 -10.65201,-3.1956008 -6.68171,0 -10.55517,3.1956008 -3.87345,3.195602 -3.87345,9.199459 0,5.422838 3.97029,8.715276 4.06713,3.292438 10.45833,3.292438 6.48804,0 10.45833,-3.292438 4.06713,-3.389274 4.06713,-8.812113 z M 609.5085,40.781557 q -7.16589,0 -11.7172,3.389274 -4.55131,3.292438 -4.55131,9.974149 0,6.19753 4.35763,9.97415 4.45448,3.77662 11.91088,3.77662 7.45641,0 11.81404,-3.77662 4.35764,-3.77662 4.35764,-9.97415 0,-6.488039 -4.45447,-9.877313 -4.45448,-3.48611 -11.71721,-3.48611 z"
       id="text3"
       aria-label="108" />
  </g>
</svg>
